<?xml version="1.0" encoding="UTF-8"?>
<svg id="Capa_1" data-name="Capa 1" xmlns="http://www.w3.org/2000/svg" viewBox="0 0 1080 1080">
  <defs>
    <style>
      .cls-1 {
        fill: #fff;
      }

      .cls-2 {
        fill: #7a828e;
      }
    </style>
  </defs>
  <g>
    <path class="cls-2" d="M947.65,210.74l-318.17-.23c-8.95,1.8-12.94,6.77-16.28,14.49l-59.87,138.25c-1.34,11.31,4.05,23.56,15.83,23.6l141.91.49c8.1.03,11.59,8.18,11.34,15.38l-4.82,21.39c-4.93,10.09-.04,21.15,10.48,24.2l140.62-.41c5.96-.02,11.23-7.28,13.29-12.33l82.05-200.65c4.14-10.13-5.67-24.17-16.38-24.18Z"/>
    <path class="cls-2" d="M795.24,658.23l-144.7.17c-8.15,0-13.37,5.71-17.35,12.17l-50.42,156.69c-3.39,10.54-4.06,20.3,1.56,30.08,3.21,5.58,8.23,9.17,15.05,10.74h112.16c8.35-1.45,14.79-5.59,17.52-13.48l55.88-161.4,11.5-29.11c.63-1.59.7-5.86-1.19-5.86Z"/>
    <path class="cls-2" d="M899.06,464.86l-16.35.25-68.18,176.29,20.71-.06,68.44-177.19c-1.92-1.04-3.53.7-4.62.71Z"/>
    <path class="cls-2" d="M910.8,464.71l-68.39,176.69,20.8-.31,68.49-177.16c-7.4,1.41-13.65,1.08-20.9.77Z"/>
  </g>
  <g>
    <path class="cls-1" d="M794.16,551.91c-2.35,0-4.29.81-5.93,2.47-1.64,1.67-2.44,3.69-2.44,6.16,0,1.61.52,2.92,1.6,4.02,1.06,1.09,2.32,1.62,3.84,1.62,2.36,0,4.31-.79,5.95-2.41,1.63-1.62,2.43-3.57,2.43-5.96,0-1.69-.53-3.07-1.62-4.22-1.06-1.13-2.31-1.67-3.82-1.67Z"/>
    <path class="cls-1" d="M691.77,551.5c-2,0-3.73.73-5.3,2.23-1.59,1.52-2.47,3.31-2.67,5.48-.2,2.12.3,3.85,1.53,5.29,1.19,1.41,2.68,2.1,4.53,2.1,2.04,0,3.81-.73,5.41-2.24,1.62-1.52,2.51-3.31,2.71-5.47.2-2.11-.31-3.84-1.55-5.29-1.21-1.41-2.74-2.1-4.67-2.1Z"/>
    <path class="cls-1" d="M860.19,463.66l-244.9.72-60.15,1.12-27.07.9c-8.88.3-15.46,27.48-19.42,40.32l-16.26,52.65-27.66,81.13c-.43,1.27-.09,2.64.34,3.26.39.56,1.54,1.24,2.88,1.22l44.97-.65c8.18-.12,16.26-.17,24.36.04l17.13.44c-2.83,8.88-10.33,15.54-17.2,21.62-13.95,12.34-30.58,20.51-49.65,22.33l-26.33.19c-52.29-5.64-100.46-33.39-131.36-75.77-31.53-43.24-35.76-100.76-10.95-147.42,20.93-39.36,60.6-75.09,106.16-76.05l42.44-.89,44.12-.96c9.88-.21,16.21-4.39,20.76-13.16,7.34-14.13,13.53-28.5,19.59-43.54,9.81-24.34,19.17-47.9,30.51-71.57,5.95-12.42,17.39-39.14,12.24-45.9-4.37-5.75-12.53-7.08-19.52-7.07l-35.72.06-41.05,1.07-30.95,1.11-31.51.85c-23.7,1.99-46.13,5.85-68.99,13.31-60.84,19.86-117.93,57.18-161.15,104.21-59.73,65.01-95.95,147.07-90.25,236.6,7.71,121.11,82.05,227.01,191.68,278.4,37.05,17.36,76.32,27.59,117.24,30.29l11.38.75,19.82.06,15.64-.99,24.56-2.99c9.8-1.19,18.75-6.3,24.97-13.79,6.1-7.33,8.77-15.74,12.35-24.54l42.08-103.24,28.21-69.46c3.59-8.85,12.37-14.86,21.47-15.23l24.63-.99,69.2-1.11c5.31-.09,9.45.03,14.73.07l67.44.45c5.69.04,7.25-3.64,8.88-7.98l18.59-49.21,40.18-113.85c1.04-2.96-4.69-6.84-8.47-6.83ZM644.35,508.33c2.51-2.51,5.54-3.78,9.03-3.78s6.57,1.27,9.06,3.78c2.49,2.51,3.75,5.54,3.75,9.02s-1.26,6.52-3.75,9.02c-2.49,2.51-5.54,3.78-9.06,3.78s-6.52-1.27-9.03-3.78c-2.51-2.51-3.78-5.54-3.78-9.03s1.27-6.52,3.78-9.03ZM574.1,579.45c-7.6,5.59-16.42,8.43-26.2,8.43-6.82,0-13.08-1.5-18.62-4.45-5.56-2.97-9.96-7.09-13.06-12.25-3.1-5.16-4.68-10.97-4.68-17.28s1.19-11.99,3.54-17.57c2.34-5.57,5.55-10.45,9.53-14.51,3.98-4.06,8.79-7.33,14.3-9.73,5.52-2.4,11.38-3.62,17.44-3.62,9.66,0,17.78,2.77,24.13,8.22,6.39,5.48,10.03,12.73,10.82,21.54l.17,1.88h-25.23l-.3-1.35c-.48-2.16-1.78-3.85-3.96-5.19-2.29-1.4-5.05-2.11-8.22-2.11-5.17,0-9.39,1.9-12.91,5.79-3.57,3.95-5.3,8.74-5.3,14.64,0,3.94,1.22,7.03,3.72,9.45,2.52,2.43,5.81,3.61,10.06,3.61,3.24,0,6.25-.82,8.95-2.44,2.69-1.6,4.49-3.61,5.52-6.13l.44-1.07h25.45l-.57,2.17c-2.36,8.97-7.42,16.37-15.05,21.98ZM613.49,563.8l-4.5,23.05h-22.48l10.77-55.6h22.55l-.46,2.3c3.4-2.14,7.23-3.22,11.44-3.22,1.35,0,3.03.18,5.14.54l1.75.3-4.28,21.63-1.66-.28c-2.3-.39-4.01-.59-5.07-.59-7.39,0-11.71,3.89-13.19,11.88ZM628.92,586.85l10.77-55.6h22.54l-10.82,55.6h-22.48ZM720.36,561.59c-1.47,7.62-4.91,13.96-10.21,18.85-5.36,4.94-11.54,7.44-18.38,7.44-5.44,0-9.73-1.42-12.81-4.24l-3.7,19.03h-22.54l13.86-71.42h22.54l-.44,2.24c3.29-2.18,7.01-3.27,11.12-3.27,4.84,0,9.1,1.42,12.66,4.24,3.54,2.79,6.04,6.66,7.44,11.49,1.38,4.75,1.53,10.01.45,15.65ZM758.44,586.52l-1.06.27c-2.53.65-5.59.98-9.09.98-7.21,0-12.68-2.44-16.28-7.26-3.55-4.77-4.57-11.18-3.04-19.06l1.7-8.56h-9.26l4.17-21.65h9.27l2.53-13.19h22.53l-2.52,13.19h11.8l-4.17,21.65h-11.81l-1.94,9.79c-.36,2.01.26,2.86.75,3.33.89.85,2.17,1.26,3.89,1.26,1.49,0,2.76-.14,3.78-.41l2.66-.7-3.92,20.36ZM817.55,571.69c-2.85,4.93-6.8,8.9-11.72,11.81-4.94,2.91-10.39,4.39-16.21,4.39-7.64,0-13.97-2.35-18.8-7-4.85-4.66-7.3-10.72-7.3-18.02,0-5.81,1.45-11.29,4.3-16.27,2.85-4.98,6.79-8.99,11.72-11.93,4.94-2.95,10.4-4.44,16.22-4.44,7.65,0,13.97,2.4,18.81,7.14,4.84,4.75,7.29,10.88,7.29,18.24,0,5.74-1.45,11.16-4.3,16.09Z"/>
  </g>
</svg>